<mxfile host="app.diagrams.net" modified="2022-02-09T12:15:29.398Z" agent="5.0 (Windows NT 10.0; Win64; x64) AppleWebKit/537.36 (KHTML, like Gecko) Chrome/98.0.4758.81 Safari/537.36" etag="ovedju3yadd0kPaoYx3H" version="16.5.3" type="github">
  <diagram id="OdU077w_5CM0RWp_ft4N" name="Page-1">
    <mxGraphModel dx="868" dy="482" grid="1" gridSize="10" guides="1" tooltips="1" connect="1" arrows="1" fold="1" page="1" pageScale="1" pageWidth="827" pageHeight="1169" math="0" shadow="0">
      <root>
        <mxCell id="0" />
        <mxCell id="1" parent="0" />
        <mxCell id="zeRmeyK7pGaY7XCBs9BO-1" value="frame" style="shape=umlFrame;whiteSpace=wrap;html=1;fillColor=#ffe6cc;strokeColor=#d79b00;swimlaneFillColor=default;labelBackgroundColor=#009900;width=480;height=610;" vertex="1" parent="1">
          <mxGeometry x="230" y="30" width="480" height="610" as="geometry" />
        </mxCell>
        <mxCell id="zeRmeyK7pGaY7XCBs9BO-2" value="SecrÃ©taire" style="shape=umlActor;verticalLabelPosition=bottom;verticalAlign=top;html=1;" vertex="1" parent="1">
          <mxGeometry x="140" y="137.5" width="30" height="60" as="geometry" />
        </mxCell>
        <mxCell id="zeRmeyK7pGaY7XCBs9BO-3" value="Directeur" style="shape=umlActor;verticalLabelPosition=bottom;verticalAlign=top;html=1;" vertex="1" parent="1">
          <mxGeometry x="160" y="362.5" width="30" height="60" as="geometry" />
        </mxCell>
        <mxCell id="zeRmeyK7pGaY7XCBs9BO-4" value="ChefDeProjet" style="shape=umlActor;verticalLabelPosition=bottom;verticalAlign=top;html=1;" vertex="1" parent="1">
          <mxGeometry x="170" y="490" width="30" height="60" as="geometry" />
        </mxCell>
        <mxCell id="zeRmeyK7pGaY7XCBs9BO-5" value="Comptable" style="shape=umlActor;verticalLabelPosition=bottom;verticalAlign=top;html=1;" vertex="1" parent="1">
          <mxGeometry x="750" y="440" width="30" height="60" as="geometry" />
        </mxCell>
        <mxCell id="zeRmeyK7pGaY7XCBs9BO-6" value="Administrateur" style="shape=umlActor;verticalLabelPosition=bottom;verticalAlign=top;html=1;" vertex="1" parent="1">
          <mxGeometry x="750" y="115" width="30" height="60" as="geometry" />
        </mxCell>
        <mxCell id="zeRmeyK7pGaY7XCBs9BO-7" value="&lt;b&gt;&lt;u&gt;Authentification&lt;/u&gt;&lt;/b&gt;" style="ellipse;whiteSpace=wrap;html=1;" vertex="1" parent="1">
          <mxGeometry x="460" y="260" width="100" height="45" as="geometry" />
        </mxCell>
        <mxCell id="zeRmeyK7pGaY7XCBs9BO-8" value="modifierProjet" style="ellipse;whiteSpace=wrap;html=1;" vertex="1" parent="1">
          <mxGeometry x="314" y="350" width="100" height="45" as="geometry" />
        </mxCell>
        <mxCell id="zeRmeyK7pGaY7XCBs9BO-9" value="ajouterOrgane" style="ellipse;whiteSpace=wrap;html=1;" vertex="1" parent="1">
          <mxGeometry x="314" y="235" width="100" height="45" as="geometry" />
        </mxCell>
        <mxCell id="zeRmeyK7pGaY7XCBs9BO-10" value="recchercherProjet" style="ellipse;whiteSpace=wrap;html=1;" vertex="1" parent="1">
          <mxGeometry x="314" y="180" width="100" height="45" as="geometry" />
        </mxCell>
        <mxCell id="zeRmeyK7pGaY7XCBs9BO-11" value="modifierProjet" style="ellipse;whiteSpace=wrap;html=1;" vertex="1" parent="1">
          <mxGeometry x="314" y="130" width="100" height="45" as="geometry" />
        </mxCell>
        <mxCell id="zeRmeyK7pGaY7XCBs9BO-12" value="ajouterProjet" style="ellipse;whiteSpace=wrap;html=1;" vertex="1" parent="1">
          <mxGeometry x="314" y="80" width="100" height="45" as="geometry" />
        </mxCell>
        <mxCell id="zeRmeyK7pGaY7XCBs9BO-13" value="ajouteruser" style="ellipse;whiteSpace=wrap;html=1;" vertex="1" parent="1">
          <mxGeometry x="540" y="80" width="100" height="45" as="geometry" />
        </mxCell>
        <mxCell id="zeRmeyK7pGaY7XCBs9BO-14" value="rechercherprojet" style="ellipse;whiteSpace=wrap;html=1;" vertex="1" parent="1">
          <mxGeometry x="314" y="395" width="100" height="45" as="geometry" />
        </mxCell>
        <mxCell id="zeRmeyK7pGaY7XCBs9BO-15" value="modifierEtDecompose&lt;br&gt;projet" style="ellipse;whiteSpace=wrap;html=1;" vertex="1" parent="1">
          <mxGeometry x="310" y="470" width="120" height="60" as="geometry" />
        </mxCell>
        <mxCell id="zeRmeyK7pGaY7XCBs9BO-16" value="modifierPhaseDe&lt;br&gt;projet" style="ellipse;whiteSpace=wrap;html=1;" vertex="1" parent="1">
          <mxGeometry x="314" y="550" width="106" height="50" as="geometry" />
        </mxCell>
        <mxCell id="zeRmeyK7pGaY7XCBs9BO-17" value="modifierUser" style="ellipse;whiteSpace=wrap;html=1;" vertex="1" parent="1">
          <mxGeometry x="540" y="137.5" width="100" height="45" as="geometry" />
        </mxCell>
        <mxCell id="zeRmeyK7pGaY7XCBs9BO-18" value="supprimerUser" style="ellipse;whiteSpace=wrap;html=1;" vertex="1" parent="1">
          <mxGeometry x="540" y="200" width="100" height="45" as="geometry" />
        </mxCell>
        <mxCell id="zeRmeyK7pGaY7XCBs9BO-19" value="modifierFature&lt;br&gt;et paiement" style="ellipse;whiteSpace=wrap;html=1;" vertex="1" parent="1">
          <mxGeometry x="570" y="362.5" width="110" height="50" as="geometry" />
        </mxCell>
        <mxCell id="zeRmeyK7pGaY7XCBs9BO-20" value="Rechercher" style="ellipse;whiteSpace=wrap;html=1;" vertex="1" parent="1">
          <mxGeometry x="580" y="530" width="110" height="50" as="geometry" />
        </mxCell>
        <mxCell id="zeRmeyK7pGaY7XCBs9BO-21" value="facturerLesPhases" style="ellipse;whiteSpace=wrap;html=1;" vertex="1" parent="1">
          <mxGeometry x="570" y="422.5" width="110" height="45" as="geometry" />
        </mxCell>
        <mxCell id="zeRmeyK7pGaY7XCBs9BO-23" value="" style="endArrow=open;startArrow=cross;endFill=0;startFill=0;endSize=8;startSize=10;html=1;rounded=0;entryX=0.06;entryY=0.667;entryDx=0;entryDy=0;entryPerimeter=0;" edge="1" parent="1" target="zeRmeyK7pGaY7XCBs9BO-12">
          <mxGeometry width="160" relative="1" as="geometry">
            <mxPoint x="170" y="185" as="sourcePoint" />
            <mxPoint x="330" y="185" as="targetPoint" />
          </mxGeometry>
        </mxCell>
        <mxCell id="zeRmeyK7pGaY7XCBs9BO-24" value="" style="endArrow=open;startArrow=cross;endFill=0;startFill=0;endSize=8;startSize=10;html=1;rounded=0;" edge="1" parent="1" target="zeRmeyK7pGaY7XCBs9BO-11">
          <mxGeometry width="160" relative="1" as="geometry">
            <mxPoint x="180" y="195" as="sourcePoint" />
            <mxPoint x="330" y="120.01499999999999" as="targetPoint" />
          </mxGeometry>
        </mxCell>
        <mxCell id="zeRmeyK7pGaY7XCBs9BO-25" value="" style="endArrow=open;startArrow=cross;endFill=0;startFill=0;endSize=8;startSize=10;html=1;rounded=0;entryX=0;entryY=0.5;entryDx=0;entryDy=0;" edge="1" parent="1" target="zeRmeyK7pGaY7XCBs9BO-10">
          <mxGeometry width="160" relative="1" as="geometry">
            <mxPoint x="190" y="205" as="sourcePoint" />
            <mxPoint x="340" y="130.015" as="targetPoint" />
          </mxGeometry>
        </mxCell>
        <mxCell id="zeRmeyK7pGaY7XCBs9BO-26" value="" style="endArrow=open;startArrow=cross;endFill=0;startFill=0;endSize=8;startSize=10;html=1;rounded=0;entryX=0;entryY=0.5;entryDx=0;entryDy=0;" edge="1" parent="1" target="zeRmeyK7pGaY7XCBs9BO-28">
          <mxGeometry width="160" relative="1" as="geometry">
            <mxPoint x="190" y="200" as="sourcePoint" />
            <mxPoint x="350" y="140.015" as="targetPoint" />
          </mxGeometry>
        </mxCell>
        <mxCell id="zeRmeyK7pGaY7XCBs9BO-27" value="" style="endArrow=open;startArrow=cross;endFill=0;startFill=0;endSize=8;startSize=10;html=1;rounded=0;entryX=0;entryY=0.5;entryDx=0;entryDy=0;exitX=1;exitY=1;exitDx=0;exitDy=0;exitPerimeter=0;" edge="1" parent="1" source="zeRmeyK7pGaY7XCBs9BO-2" target="zeRmeyK7pGaY7XCBs9BO-9">
          <mxGeometry width="160" relative="1" as="geometry">
            <mxPoint x="210" y="225" as="sourcePoint" />
            <mxPoint x="360" y="150.015" as="targetPoint" />
          </mxGeometry>
        </mxCell>
        <mxCell id="zeRmeyK7pGaY7XCBs9BO-28" value="modifierOrgane" style="ellipse;whiteSpace=wrap;html=1;" vertex="1" parent="1">
          <mxGeometry x="314" y="290" width="100" height="45" as="geometry" />
        </mxCell>
        <mxCell id="zeRmeyK7pGaY7XCBs9BO-30" value="" style="endArrow=open;startArrow=cross;endFill=0;startFill=0;endSize=8;startSize=10;html=1;rounded=0;" edge="1" parent="1">
          <mxGeometry width="160" relative="1" as="geometry">
            <mxPoint x="180" y="422.5" as="sourcePoint" />
            <mxPoint x="320" y="380" as="targetPoint" />
          </mxGeometry>
        </mxCell>
        <mxCell id="zeRmeyK7pGaY7XCBs9BO-31" value="" style="endArrow=open;startArrow=cross;endFill=0;startFill=0;endSize=8;startSize=10;html=1;rounded=0;entryX=0;entryY=0.5;entryDx=0;entryDy=0;" edge="1" parent="1" target="zeRmeyK7pGaY7XCBs9BO-14">
          <mxGeometry width="160" relative="1" as="geometry">
            <mxPoint x="180" y="418" as="sourcePoint" />
            <mxPoint x="330" y="390" as="targetPoint" />
          </mxGeometry>
        </mxCell>
        <mxCell id="zeRmeyK7pGaY7XCBs9BO-32" value="" style="endArrow=open;startArrow=cross;endFill=0;startFill=0;endSize=8;startSize=10;html=1;rounded=0;" edge="1" parent="1" target="zeRmeyK7pGaY7XCBs9BO-15">
          <mxGeometry width="160" relative="1" as="geometry">
            <mxPoint x="190" y="540" as="sourcePoint" />
            <mxPoint x="350" y="540" as="targetPoint" />
          </mxGeometry>
        </mxCell>
        <mxCell id="zeRmeyK7pGaY7XCBs9BO-33" value="" style="endArrow=open;startArrow=cross;endFill=0;startFill=0;endSize=8;startSize=10;html=1;rounded=0;" edge="1" parent="1" target="zeRmeyK7pGaY7XCBs9BO-16">
          <mxGeometry width="160" relative="1" as="geometry">
            <mxPoint x="190" y="540" as="sourcePoint" />
            <mxPoint x="328.7931424042845" y="522.1129524772498" as="targetPoint" />
          </mxGeometry>
        </mxCell>
        <mxCell id="zeRmeyK7pGaY7XCBs9BO-34" value="" style="endArrow=open;startArrow=cross;endFill=0;startFill=0;endSize=8;startSize=10;html=1;rounded=0;entryX=1;entryY=0.5;entryDx=0;entryDy=0;exitX=0;exitY=1;exitDx=0;exitDy=0;exitPerimeter=0;" edge="1" parent="1" source="zeRmeyK7pGaY7XCBs9BO-6" target="zeRmeyK7pGaY7XCBs9BO-13">
          <mxGeometry width="160" relative="1" as="geometry">
            <mxPoint x="680" y="182.5" as="sourcePoint" />
            <mxPoint x="840" y="182.5" as="targetPoint" />
          </mxGeometry>
        </mxCell>
        <mxCell id="zeRmeyK7pGaY7XCBs9BO-35" value="" style="endArrow=open;startArrow=cross;endFill=0;startFill=0;endSize=8;startSize=10;html=1;rounded=0;" edge="1" parent="1" target="zeRmeyK7pGaY7XCBs9BO-17">
          <mxGeometry width="160" relative="1" as="geometry">
            <mxPoint x="740" y="170" as="sourcePoint" />
            <mxPoint x="650" y="112.5" as="targetPoint" />
          </mxGeometry>
        </mxCell>
        <mxCell id="zeRmeyK7pGaY7XCBs9BO-36" value="" style="endArrow=open;startArrow=cross;endFill=0;startFill=0;endSize=8;startSize=10;html=1;rounded=0;entryX=1;entryY=0.5;entryDx=0;entryDy=0;" edge="1" parent="1" target="zeRmeyK7pGaY7XCBs9BO-18">
          <mxGeometry width="160" relative="1" as="geometry">
            <mxPoint x="740" y="170" as="sourcePoint" />
            <mxPoint x="649.4601731176936" y="173.29734487451287" as="targetPoint" />
          </mxGeometry>
        </mxCell>
        <mxCell id="zeRmeyK7pGaY7XCBs9BO-37" value="" style="endArrow=open;startArrow=cross;endFill=0;startFill=0;endSize=8;startSize=10;html=1;rounded=0;entryX=1;entryY=0.5;entryDx=0;entryDy=0;exitX=0;exitY=1;exitDx=0;exitDy=0;exitPerimeter=0;" edge="1" parent="1" source="zeRmeyK7pGaY7XCBs9BO-5" target="zeRmeyK7pGaY7XCBs9BO-19">
          <mxGeometry width="160" relative="1" as="geometry">
            <mxPoint x="640" y="489" as="sourcePoint" />
            <mxPoint x="800" y="489" as="targetPoint" />
          </mxGeometry>
        </mxCell>
        <mxCell id="zeRmeyK7pGaY7XCBs9BO-38" value="" style="endArrow=open;startArrow=cross;endFill=0;startFill=0;endSize=8;startSize=10;html=1;rounded=0;entryX=1;entryY=0.5;entryDx=0;entryDy=0;exitX=0;exitY=1;exitDx=0;exitDy=0;exitPerimeter=0;" edge="1" parent="1" source="zeRmeyK7pGaY7XCBs9BO-5" target="zeRmeyK7pGaY7XCBs9BO-21">
          <mxGeometry width="160" relative="1" as="geometry">
            <mxPoint x="740" y="510" as="sourcePoint" />
            <mxPoint x="670" y="382.5" as="targetPoint" />
          </mxGeometry>
        </mxCell>
        <mxCell id="zeRmeyK7pGaY7XCBs9BO-39" value="" style="endArrow=open;startArrow=cross;endFill=0;startFill=0;endSize=8;startSize=10;html=1;rounded=0;exitX=0;exitY=1;exitDx=0;exitDy=0;exitPerimeter=0;" edge="1" parent="1" source="zeRmeyK7pGaY7XCBs9BO-5" target="zeRmeyK7pGaY7XCBs9BO-20">
          <mxGeometry width="160" relative="1" as="geometry">
            <mxPoint x="750" y="520" as="sourcePoint" />
            <mxPoint x="680" y="392.5" as="targetPoint" />
          </mxGeometry>
        </mxCell>
        <mxCell id="zeRmeyK7pGaY7XCBs9BO-43" value="&amp;lt;Include&amp;gt;" style="endArrow=open;endSize=12;dashed=1;html=1;rounded=0;exitX=1;exitY=0.667;exitDx=0;exitDy=0;exitPerimeter=0;entryX=0.7;entryY=0.067;entryDx=0;entryDy=0;entryPerimeter=0;" edge="1" parent="1" source="zeRmeyK7pGaY7XCBs9BO-12" target="zeRmeyK7pGaY7XCBs9BO-7">
          <mxGeometry width="160" relative="1" as="geometry">
            <mxPoint x="330" y="210" as="sourcePoint" />
            <mxPoint x="490" y="210" as="targetPoint" />
          </mxGeometry>
        </mxCell>
        <mxCell id="zeRmeyK7pGaY7XCBs9BO-46" value="&amp;lt;Include&amp;gt;" style="endArrow=open;endSize=12;dashed=1;html=1;rounded=0;exitX=0.3;exitY=0.288;exitDx=0;exitDy=0;exitPerimeter=0;entryX=0;entryY=0;entryDx=0;entryDy=0;" edge="1" parent="1" source="zeRmeyK7pGaY7XCBs9BO-1" target="zeRmeyK7pGaY7XCBs9BO-7">
          <mxGeometry width="160" relative="1" as="geometry">
            <mxPoint x="444" y="140.015" as="sourcePoint" />
            <mxPoint x="550" y="313.015" as="targetPoint" />
          </mxGeometry>
        </mxCell>
        <mxCell id="zeRmeyK7pGaY7XCBs9BO-47" value="&amp;lt;Include&amp;gt;" style="endArrow=open;endSize=12;dashed=1;html=1;rounded=0;exitX=1;exitY=1;exitDx=0;exitDy=0;" edge="1" parent="1" source="zeRmeyK7pGaY7XCBs9BO-11" target="zeRmeyK7pGaY7XCBs9BO-7">
          <mxGeometry width="160" relative="1" as="geometry">
            <mxPoint x="454" y="150.015" as="sourcePoint" />
            <mxPoint x="560" y="323.015" as="targetPoint" />
          </mxGeometry>
        </mxCell>
        <mxCell id="zeRmeyK7pGaY7XCBs9BO-48" value="&amp;lt;Include&amp;gt;" style="endArrow=open;endSize=12;dashed=1;html=1;rounded=0;exitX=0.99;exitY=0.689;exitDx=0;exitDy=0;exitPerimeter=0;entryX=0.06;entryY=0.711;entryDx=0;entryDy=0;entryPerimeter=0;" edge="1" parent="1" source="zeRmeyK7pGaY7XCBs9BO-9" target="zeRmeyK7pGaY7XCBs9BO-7">
          <mxGeometry width="160" relative="1" as="geometry">
            <mxPoint x="410" y="229.91999999999996" as="sourcePoint" />
            <mxPoint x="474.24966654934724" y="266.7698532817128" as="targetPoint" />
          </mxGeometry>
        </mxCell>
        <mxCell id="zeRmeyK7pGaY7XCBs9BO-49" value="&amp;lt;Include&amp;gt;" style="endArrow=open;endSize=12;dashed=1;html=1;rounded=0;" edge="1" parent="1" source="zeRmeyK7pGaY7XCBs9BO-28">
          <mxGeometry width="160" relative="1" as="geometry">
            <mxPoint x="423" y="276.005" as="sourcePoint" />
            <mxPoint x="476" y="302" as="targetPoint" />
          </mxGeometry>
        </mxCell>
        <mxCell id="zeRmeyK7pGaY7XCBs9BO-50" value="&amp;lt;Include&amp;gt;" style="endArrow=open;endSize=12;dashed=1;html=1;rounded=0;entryX=0.5;entryY=1;entryDx=0;entryDy=0;" edge="1" parent="1" target="zeRmeyK7pGaY7XCBs9BO-7">
          <mxGeometry width="160" relative="1" as="geometry">
            <mxPoint x="390" y="362.5" as="sourcePoint" />
            <mxPoint x="550" y="362.5" as="targetPoint" />
          </mxGeometry>
        </mxCell>
        <mxCell id="zeRmeyK7pGaY7XCBs9BO-52" value="&amp;lt;Include&amp;gt;" style="endArrow=open;endSize=12;dashed=1;html=1;rounded=0;entryX=0.67;entryY=1.044;entryDx=0;entryDy=0;exitX=1;exitY=0;exitDx=0;exitDy=0;entryPerimeter=0;" edge="1" parent="1" source="zeRmeyK7pGaY7XCBs9BO-14" target="zeRmeyK7pGaY7XCBs9BO-7">
          <mxGeometry width="160" relative="1" as="geometry">
            <mxPoint x="400" y="372.5" as="sourcePoint" />
            <mxPoint x="520" y="315" as="targetPoint" />
          </mxGeometry>
        </mxCell>
        <mxCell id="zeRmeyK7pGaY7XCBs9BO-53" value="&amp;lt;Include&amp;gt;" style="endArrow=open;endSize=12;dashed=1;html=1;rounded=0;exitX=1;exitY=0;exitDx=0;exitDy=0;" edge="1" parent="1" source="zeRmeyK7pGaY7XCBs9BO-15">
          <mxGeometry width="160" relative="1" as="geometry">
            <mxPoint x="409.75033345065276" y="411.7698532817127" as="sourcePoint" />
            <mxPoint x="530" y="310" as="targetPoint" />
          </mxGeometry>
        </mxCell>
        <mxCell id="zeRmeyK7pGaY7XCBs9BO-54" value="&amp;lt;Include&amp;gt;" style="endArrow=open;endSize=12;dashed=1;html=1;rounded=0;exitX=0;exitY=0.5;exitDx=0;exitDy=0;entryX=0.39;entryY=0.044;entryDx=0;entryDy=0;entryPerimeter=0;" edge="1" parent="1" source="zeRmeyK7pGaY7XCBs9BO-13" target="zeRmeyK7pGaY7XCBs9BO-7">
          <mxGeometry width="160" relative="1" as="geometry">
            <mxPoint x="424" y="120.01499999999999" as="sourcePoint" />
            <mxPoint x="540" y="273.015" as="targetPoint" />
          </mxGeometry>
        </mxCell>
        <mxCell id="zeRmeyK7pGaY7XCBs9BO-55" value="&amp;lt;Include&amp;gt;" style="endArrow=open;endSize=12;dashed=1;html=1;rounded=0;exitX=0.07;exitY=0.767;exitDx=0;exitDy=0;entryX=0.5;entryY=0;entryDx=0;entryDy=0;exitPerimeter=0;" edge="1" parent="1" source="zeRmeyK7pGaY7XCBs9BO-17" target="zeRmeyK7pGaY7XCBs9BO-7">
          <mxGeometry width="160" relative="1" as="geometry">
            <mxPoint x="550" y="112.5" as="sourcePoint" />
            <mxPoint x="509" y="271.98" as="targetPoint" />
          </mxGeometry>
        </mxCell>
        <mxCell id="zeRmeyK7pGaY7XCBs9BO-56" value="&amp;lt;Include&amp;gt;" style="endArrow=open;endSize=12;dashed=1;html=1;rounded=0;exitX=0.5;exitY=1;exitDx=0;exitDy=0;entryX=1;entryY=0.5;entryDx=0;entryDy=0;" edge="1" parent="1" source="zeRmeyK7pGaY7XCBs9BO-18" target="zeRmeyK7pGaY7XCBs9BO-7">
          <mxGeometry width="160" relative="1" as="geometry">
            <mxPoint x="557" y="182.015" as="sourcePoint" />
            <mxPoint x="520" y="270" as="targetPoint" />
          </mxGeometry>
        </mxCell>
        <mxCell id="zeRmeyK7pGaY7XCBs9BO-57" value="&amp;lt;Include&amp;gt;" style="endArrow=open;endSize=12;dashed=1;html=1;rounded=0;exitX=0;exitY=0.5;exitDx=0;exitDy=0;" edge="1" parent="1" source="zeRmeyK7pGaY7XCBs9BO-20">
          <mxGeometry width="160" relative="1" as="geometry">
            <mxPoint x="422.42640687119297" y="488.7867965644035" as="sourcePoint" />
            <mxPoint x="530" y="300" as="targetPoint" />
          </mxGeometry>
        </mxCell>
        <mxCell id="zeRmeyK7pGaY7XCBs9BO-59" value="&amp;lt;Include&amp;gt;" style="endArrow=open;endSize=12;dashed=1;html=1;rounded=0;exitX=0.082;exitY=0.178;exitDx=0;exitDy=0;exitPerimeter=0;" edge="1" parent="1" source="zeRmeyK7pGaY7XCBs9BO-21">
          <mxGeometry width="160" relative="1" as="geometry">
            <mxPoint x="560" y="525" as="sourcePoint" />
            <mxPoint x="540" y="310" as="targetPoint" />
          </mxGeometry>
        </mxCell>
        <mxCell id="zeRmeyK7pGaY7XCBs9BO-60" value="&amp;lt;Include&amp;gt;" style="endArrow=open;endSize=12;dashed=1;html=1;rounded=0;exitX=0.5;exitY=0;exitDx=0;exitDy=0;entryX=0.667;entryY=0.443;entryDx=0;entryDy=0;entryPerimeter=0;" edge="1" parent="1" source="zeRmeyK7pGaY7XCBs9BO-19" target="zeRmeyK7pGaY7XCBs9BO-1">
          <mxGeometry width="160" relative="1" as="geometry">
            <mxPoint x="589.02" y="440.51" as="sourcePoint" />
            <mxPoint x="550" y="320" as="targetPoint" />
          </mxGeometry>
        </mxCell>
        <mxCell id="zeRmeyK7pGaY7XCBs9BO-61" value="&amp;lt;Extends&amp;gt;" style="endArrow=open;endSize=12;dashed=1;html=1;rounded=0;entryX=0.609;entryY=0.989;entryDx=0;entryDy=0;entryPerimeter=0;" edge="1" parent="1" source="zeRmeyK7pGaY7XCBs9BO-20" target="zeRmeyK7pGaY7XCBs9BO-21">
          <mxGeometry width="160" relative="1" as="geometry">
            <mxPoint x="520" y="510" as="sourcePoint" />
            <mxPoint x="680" y="510" as="targetPoint" />
          </mxGeometry>
        </mxCell>
      </root>
    </mxGraphModel>
  </diagram>
</mxfile>
